<svg width="284" height="67" viewBox="0 0 284 67" fill="none" xmlns="http://www.w3.org/2000/svg">
<g clip-path="url(#clip0_709_13299)">
<path d="M91.1532 18.8302L80.9905 47.9433H80.1475L69.9844 18.8302H71.3269L80.5685 45.8223L89.8109 18.8302H91.1532ZM95.6393 18.8302H96.8667V47.7499H95.6393V18.8302ZM122.521 18.8302L112.358 47.9433H111.515L101.352 18.8302H102.695L111.936 45.8223L121.179 18.8302H122.521ZM127.007 18.8302H128.234V47.7499H127.007V18.8302ZM134.445 47.7501V18.8302H142.768C151.857 18.8302 153.813 24.2286 153.813 33.29C153.813 42.3514 151.857 47.7498 142.768 47.7498L134.445 47.7501ZM135.673 46.6322H142.576C150.552 46.6322 152.546 42.2366 152.546 33.2903C152.546 24.3445 150.552 19.9486 142.576 19.9486H135.673V46.6322ZM170.186 18.8302H175.555L180.426 41.6188L184.183 18.8302H188.747L183.34 48.0972H178.086L172.871 23.9972L167.654 48.0972H162.401L156.994 18.8302H161.557L165.315 41.6188L170.186 18.8302ZM191.775 33.2902C191.775 25.1156 193.615 18.3677 202.858 18.3677C212.1 18.3677 213.94 25.1154 213.94 33.2902C213.94 41.4649 212.1 48.2126 202.858 48.2126C193.615 48.2128 191.775 41.4649 191.775 33.2902M196.185 33.2902C196.185 40.1538 197.411 44.2797 202.858 44.2797C208.305 44.2797 209.53 40.1537 209.53 33.2902C209.53 26.427 208.304 22.3007 202.858 22.3007C197.411 22.3006 196.185 26.427 196.185 33.2902M222.529 47.7501H218.234V18.8302H227.592C235.033 18.8302 237.41 22.1852 237.41 27.4294C237.41 31.1693 236.259 33.9076 232.73 35.1416L238.753 47.7501H233.727L228.512 35.9896H222.529V47.7501H222.529V47.7501ZM222.529 32.0564H228.205C232.194 32.0564 232.73 29.7816 232.73 27.4293C232.73 25.0389 232.194 22.8021 228.205 22.8021H222.529V32.0564ZM248.605 35.0262L246.305 37.8017L246.344 47.7501H242.048V18.8302H246.344L246.305 32.2495L256.66 18.8302H261.951L251.368 31.632L262.911 47.7501H257.464L248.605 35.0262ZM284.001 38.9975C284.001 44.4727 280.78 48.2128 273.072 48.2128C270.195 48.2128 266.514 47.5575 264.557 46.5543V42.2366C266.131 42.9305 268.892 44.1263 272.803 44.1263C277.981 44.1263 279.515 42.0053 279.515 39.267C279.515 36.0668 278.172 35.2959 274.3 34.794C267.282 33.9076 264.557 32.0182 264.557 26.7354C264.557 22.4939 266.935 18.3677 274.76 18.3677C278.48 18.3677 281.088 19.023 282.544 19.7552V23.959C280.435 23.0337 277.827 22.4549 274.99 22.4549C270.502 22.4549 268.968 24.3063 268.968 26.7739C268.968 29.8972 270.732 30.4374 274.529 30.9382C280.511 31.748 284.001 33.0972 284.001 38.9975" fill="#0A1824"/>
<path d="M26.8015 0.707111L14.8454 7.64871L2.89376 14.5857C1.27132 15.5261 0 17.7382 0 19.6209L0.0015193 33.4993L0 47.3795C0 49.2601 1.27081 51.4723 2.89326 52.4155L14.8456 59.3537L26.8017 66.2926C28.4221 67.2359 30.9622 67.2359 32.5835 66.2922L44.5368 59.3537L56.4926 52.4158C58.1142 51.4711 59.384 49.2591 59.384 47.3795L59.3826 33.4992L59.384 19.621C59.384 17.7395 58.114 15.5281 56.4929 14.5859L44.5367 7.64871L32.5828 0.70728C31.7961 0.250866 30.7693 8.60155e-08 29.6912 8.60155e-08C28.6118 -0.000169648 27.5856 0.250866 26.8015 0.707111ZM27.2453 1.47991C27.4329 1.9443 27.6898 2.25237 27.6898 2.25237C28.2006 1.95499 28.9302 1.78458 29.6912 1.78458C30.4517 1.78458 31.1823 1.95516 31.6955 2.25288L43.6492 9.19464L55.6051 16.1318C56.6913 16.7627 57.6089 18.3606 57.6089 19.6212L57.6072 33.4995L57.6089 47.38C57.6089 48.6391 56.6907 50.238 55.6036 50.8711L43.6496 57.8079L31.6953 64.7471C30.6278 65.3684 28.7567 65.3684 27.6898 64.7475L15.7332 57.8079L3.78137 50.87C2.69406 50.2381 1.77522 48.6394 1.77522 47.38L1.77674 33.4997L1.77522 19.621C1.77522 18.3601 2.69372 16.7622 3.78087 16.1322L15.7332 9.19498L27.6891 2.25288" fill="#0A1824"/>
<path d="M38.6926 17.2422H43.866L29.5636 48.7566L14.957 17.2422H20.4346L29.5636 37.1302L38.6926 17.2422Z" fill="#0A1824"/>
</g>
<defs>
<clipPath id="clip0_709_13299">
<rect width="284" height="67" fill="white"/>
</clipPath>
</defs>
</svg>
